<svg width="393" height="352" viewBox="0 0 393 352" fill="none" xmlns="http://www.w3.org/2000/svg">
<path fill-rule="evenodd" clip-rule="evenodd" d="M94.1452 0C92.4884 0 90.8049 1.2993 90.385 2.90207L0.095573 347.555C-0.324307 349.158 0.678463 350.457 2.33532 350.457H68.792C70.4488 350.457 72.1323 349.158 72.5522 347.555L127.585 137.485L164.147 276.962C164.567 278.565 166.25 279.864 167.907 279.864H235.26C236.92 279.864 237.923 278.559 237.497 276.952L164.769 2.89252C164.345 1.29348 162.664 0 161.011 0H160.602H94.5452H94.1452Z" fill="white"/>
<path d="M243.195 279.864H176.021C174.061 279.864 172.627 278.016 173.115 276.118L184.943 230.05L188.4 216.588C188.887 214.689 187.453 212.841 185.494 212.841H172.153H135.925H120.127C118.762 212.841 117.57 213.762 117.225 215.083L113.548 229.144L85.8443 335.112L82.5648 347.656C82.0678 349.557 83.5023 351.415 85.4673 351.415H95.1678H282.649H297.545C298.908 351.415 300.099 350.496 300.446 349.178L304.62 333.301L387.478 18.1142L391.251 3.76274C391.751 1.86066 390.316 0 388.349 0H375.032H194.796H182.359C180.4 0 178.967 1.84734 179.453 3.74512L182.441 15.397L196.029 68.3904C196.369 69.7173 197.565 70.6452 198.935 70.6452H295.979C297.942 70.6452 299.376 72.4994 298.883 74.3994L246.099 277.618C245.755 278.941 244.561 279.864 243.195 279.864Z" fill="url(#paint0_linear)"/>
<defs>
<linearGradient id="paint0_linear" x1="337.875" y1="26.3561" x2="133.203" y2="283.685" gradientUnits="userSpaceOnUse">
<stop stop-color="#64FA9B"/>
<stop offset="1" stop-color="#5FE36A"/>
</linearGradient>
</defs>
</svg>
